<?xml version="1.0" standalone="no"?>
<!DOCTYPE svg PUBLIC "-//W3C//DTD SVG 20010904//EN"
 "http://www.w3.org/TR/2001/REC-SVG-20010904/DTD/svg10.dtd">
<svg version="1.0" xmlns="http://www.w3.org/2000/svg"
 width="745.000000pt" height="745.000000pt" viewBox="0 0 745.000000 745.000000"
 preserveAspectRatio="xMidYMid meet">
<metadata>
Created by potrace 1.11, written by Peter Selinger 2001-2013
</metadata>
<g transform="translate(0.000000,745.000000) scale(0.100000,-0.100000)"
fill="#000000" stroke="none">
<path d="M2149 6435 l-1524 -873 -3 -319 -2 -319 982 -564 c1754 -1005 2060
-1180 2064 -1180 2 0 4 140 4 310 0 192 4 310 10 310 11 0 2459 -1397 2477
-1414 10 -9 -279 -179 -1232 -724 -684 -391 -1248 -712 -1252 -712 -4 0 -568
321 -1253 713 l-1245 713 -3 320 -2 320 -273 156 -272 155 -3 -630 c-1 -347 1
-634 5 -638 15 -15 3038 -1742 3048 -1742 5 0 694 392 1530 871 l1520 871 3
318 2 318 -772 442 c-425 243 -1110 636 -1523 873 -412 236 -753 430 -757 430
-5 0 -8 -140 -8 -311 0 -275 -2 -310 -15 -305 -9 3 -120 66 -248 139 -128 74
-264 152 -303 173 -213 117 -1923 1100 -1924 1106 0 7 2465 1421 2487 1426 8
2 574 -317 1258 -709 l1245 -713 2 -319 3 -319 260 -150 c143 -82 268 -154
278 -159 16 -9 17 23 17 624 l0 634 -367 210 c-203 116 -891 510 -1529 876
l-1161 664 -1524 -872z"/>
</g>
</svg>
